<svg xmlns="http://www.w3.org/2000/svg" xmlns:xlink="http://www.w3.org/1999/xlink" viewBox="0 0 1000 1000"><defs><style>.a{clip-path:url(#b);}.b{fill:#86bfdd;}.b,.c{opacity:0.75;}.c{fill:#4fc188;}.d{fill:none;stroke-linejoin:round;}.e,.f{stroke:none;}.f{fill:#fff;}</style><clipPath id="b"><rect width="1000" height="1000"/></clipPath></defs><g id="a" class="a"><circle class="b" cx="250" cy="250" r="250" transform="translate(400 100)"/><circle class="c" cx="300" cy="300" r="300" transform="translate(100 300)"/><g class="d" transform="translate(147.154 605.359) rotate(-45)"><path class="e" d="M139.731,346.445a174.033,174.033,0,0,1-62.575-26.332,175.518,175.518,0,0,1-63.4-77,174.164,174.164,0,0,1-10.2-32.85,176.722,176.722,0,0,1,0-70.537A174.033,174.033,0,0,1,29.887,77.156a175.518,175.518,0,0,1,77-63.4,174.135,174.135,0,0,1,32.849-10.2,176.722,176.722,0,0,1,70.537,0,174.029,174.029,0,0,1,62.576,26.332A175.537,175.537,0,0,1,335.439,105H580a68,68,0,0,1,68,68v4a68,68,0,0,1-68,68h-9.167L547.3,268.533a28,28,0,0,1-39.6,0L484.168,245h-5.337L455.3,268.533a28,28,0,0,1-39.6,0L392.168,245H335.439A175.294,175.294,0,0,1,139.731,346.445Zm-57.3-208.3A40.129,40.129,0,1,0,98,135,39.874,39.874,0,0,0,82.43,138.144Z"/><path class="f" d="M 174.9996032714844 330.0001525878906 C 185.5299987792969 330.0001525878906 196.0469055175781 328.940673828125 206.2581024169922 326.8511657714844 C 216.2010955810547 324.8163757324219 225.9813995361328 321.7804565429688 235.3255004882812 317.8286743164062 C 244.5090942382812 313.9434509277344 253.3652038574219 309.1362609863281 261.647705078125 303.5406494140625 C 269.8583984375 297.9934692382812 277.5810852050781 291.6212463378906 284.6011962890625 284.6012573242188 C 291.6213073730469 277.5811462402344 297.993408203125 269.8584594726562 303.5407104492188 261.6474609375 C 308.7926940917969 253.8738555908203 313.3590087890625 245.5777587890625 317.11279296875 236.9896545410156 C 320.2962036132812 229.7065582275391 327.4902954101562 224.999755859375 335.4386901855469 224.999755859375 L 392.1677856445312 224.999755859375 C 397.4721069335938 224.999755859375 402.5592041015625 227.1068572998047 406.3099975585938 230.857666015625 L 429.8431091308594 254.3909606933594 C 431.8821105957031 256.4299621582031 434.2626037597656 256.734375 435.5000915527344 256.734375 C 436.7376098632812 256.734375 439.1181030273438 256.4299621582031 441.1567993164062 254.3911590576172 L 464.6893005371094 230.8578643798828 C 468.4400939941406 227.1069641113281 473.5273132324219 224.999755859375 478.8316955566406 224.999755859375 L 484.1683044433594 224.999755859375 C 489.4726867675781 224.999755859375 494.5599060058594 227.1069641113281 498.3106994628906 230.8578643798828 L 521.8428955078125 254.3909606933594 C 523.8818969726562 256.4299621582031 526.2623901367188 256.734375 527.4998779296875 256.734375 C 528.7374267578125 256.734375 531.117919921875 256.4299621582031 533.1567993164062 254.3909606933594 L 556.6900024414062 230.857666015625 C 560.4407958984375 227.1068572998047 565.5278930664062 224.999755859375 570.8322143554688 224.999755859375 L 579.9995727539062 224.999755859375 C 606.4671020507812 224.999755859375 628 203.4672546386719 628 177.0002593994141 L 628 172.999755859375 C 628 146.5327606201172 606.4671020507812 125.0002593994141 579.9995727539062 125.0002593994141 L 335.4388122558594 125.0002593994141 C 327.4902038574219 125.0002593994141 320.2959899902344 120.2932586669922 317.1127014160156 113.0099639892578 C 313.3599853515625 104.4236602783203 308.7936096191406 96.12766265869141 303.5405883789062 88.35236358642578 C 297.9937133789062 80.14215850830078 291.6213073730469 72.41896057128906 284.6019897460938 65.39886474609375 C 277.5805053710938 58.37826156616211 269.8576049804688 52.00616073608398 261.6484985351562 46.46015930175781 C 253.3614044189453 40.86196136474609 244.5052947998047 36.05466079711914 235.3274993896484 32.17235946655273 C 225.9815063476562 28.21966171264648 216.2010955810547 25.18376159667969 206.2586975097656 23.14896011352539 C 196.0464935302734 21.05946159362793 185.5294036865234 19.99996185302734 174.9996032714844 19.99996185302734 C 164.4705963134766 19.99996185302734 153.9533996582031 21.05946159362793 143.7413024902344 23.14886093139648 C 133.7976989746094 25.18386077880859 124.0177993774414 28.21966171264648 114.6741027832031 32.17166137695312 C 105.4926986694336 36.05556106567383 96.63680267333984 40.86276245117188 88.35230255126953 46.45965957641602 C 80.14040374755859 52.00756072998047 72.41719818115234 58.37966156005859 65.39869689941406 65.39736175537109 C 58.37969970703125 72.41716003417969 52.00759887695312 80.14035797119141 46.45970153808594 88.35215759277344 C 40.86270141601562 96.63676452636719 36.05559921264648 105.4927597045898 32.17210006713867 114.6731643676758 C 28.21960067749023 124.0181579589844 25.18370056152344 133.7980651855469 23.14909934997559 143.7403564453125 C 21.05949974060059 153.9529571533203 20 164.4700622558594 20 174.9995574951172 C 20 185.5298614501953 21.05949974060059 196.0468597412109 23.14889907836914 206.258056640625 C 25.1835994720459 216.2008666992188 28.21960067749023 225.9811553955078 32.17169952392578 235.3259582519531 C 36.0546989440918 244.5051574707031 40.86199951171875 253.3613586425781 46.45959854125977 261.6477661132812 C 52.00630187988281 269.8578491210938 58.37839889526367 277.5807495117188 65.39720153808594 284.6004638671875 C 72.41899871826172 291.6214599609375 80.14230346679688 297.9938659667969 88.35240173339844 303.5406494140625 C 96.63619995117188 309.1371459960938 105.4921035766602 313.9442749023438 114.6732025146484 317.8280639648438 C 124.0178985595703 321.7804565429688 133.7978057861328 324.8162536621094 143.7404937744141 326.85107421875 C 153.9530029296875 328.940673828125 164.4700012207031 330.0001525878906 174.9996032714844 330.0001525878906 M 98.00009918212891 114.9999618530273 C 106.0910034179688 114.9999618530273 113.9508972167969 116.5892639160156 121.3601989746094 119.7231597900391 C 128.5054931640625 122.7449645996094 134.9197998046875 127.0676574707031 140.4282989501953 132.5748596191406 C 145.9320068359375 138.0799560546875 150.2548065185547 144.4942626953125 153.2758026123047 151.6380615234375 C 156.410400390625 159.0482635498047 157.9996948242188 166.9081573486328 157.9996948242188 174.9995574951172 C 157.9996948242188 183.0907592773438 156.410400390625 190.9506683349609 153.2763977050781 198.35986328125 C 150.2545928955078 205.5050659179688 145.9319000244141 211.9192657470703 140.4264984130859 217.4259643554688 C 134.9217071533203 222.9308624267578 128.5068054199219 227.2545623779297 121.3619003295898 230.2761535644531 C 113.9517974853516 233.4106597900391 106.0916976928711 235.0000610351562 98.00009918212891 235.0000610351562 C 89.90850067138672 235.0000610351562 82.04840087890625 233.4106597900391 74.63999938964844 230.27685546875 C 67.49340057373047 227.2545623779297 61.07849884033203 222.9308624267578 55.57369995117188 217.4259643554688 C 50.06880187988281 211.9211578369141 45.74520111083984 205.5063629150391 42.72330093383789 198.3609619140625 C 39.58890151977539 190.9506683349609 37.99959945678711 183.0907592773438 37.99959945678711 174.9995574951172 C 37.99959945678711 166.9081573486328 39.58890151977539 159.0482635498047 42.72269821166992 151.6397552490234 C 45.74499893188477 144.4929656982422 50.06869888305664 138.0780639648438 55.57540130615234 132.5713653564453 C 61.08039855957031 127.0676574707031 67.49469757080078 122.7449645996094 74.63770294189453 119.7241592407227 C 82.04759979248047 116.5893630981445 89.90779876708984 114.9999618530273 98.00009918212891 114.9999618530273 M 174.9996032714844 350.0001525878906 C 163.1259002685547 350.0001525878906 151.2602996826172 348.8040466308594 139.7312927246094 346.445068359375 C 128.4947967529297 344.1455688476562 117.4428024291992 340.7148742675781 106.8822021484375 336.2481689453125 C 96.51239776611328 331.861572265625 86.5115966796875 326.4335632324219 77.15609741210938 320.1129760742188 C 67.88970184326172 313.8525695800781 59.17589950561523 306.6624755859375 51.25590133666992 298.7433471679688 C 43.33769989013672 290.8242492675781 36.14759826660156 282.1104736328125 29.88719940185547 272.8439636230469 C 23.5673999786377 263.4884643554688 18.13859939575195 253.4876556396484 13.7519998550415 243.1178588867188 C 9.285300254821777 232.5564575195312 5.854499816894531 221.5044555664062 3.555000066757202 210.2678680419922 C 1.196099996566772 198.7397613525391 0 186.8732604980469 0 174.9995574951172 C 0 163.1258544921875 1.196099996566772 151.26025390625 3.555000066757202 139.7312622070312 C 5.854499816894531 128.4947662353516 9.285300254821777 117.4427642822266 13.7519998550415 106.8821640014648 C 18.13859939575195 96.51235961914062 23.5673999786377 86.51065826416016 29.88719940185547 77.15605926513672 C 36.14759826660156 67.88966369628906 43.33679962158203 59.17586135864258 51.25590133666992 51.25596237182617 C 59.17589950561523 43.33676147460938 67.88970184326172 36.14756011962891 77.15609741210938 29.88726043701172 C 86.51069641113281 23.56736183166504 96.51239776611328 18.1385612487793 106.8822021484375 13.75196075439453 C 117.4428024291992 9.285261154174805 128.4947967529297 5.854560852050781 139.7312927246094 3.554960966110229 C 151.2602996826172 1.196161031723022 163.1259002685547 -3.896484486176632e-05 174.9996032714844 -3.896484486176632e-05 C 186.8733062744141 -3.896484486176632e-05 198.7398071289062 1.196161031723022 210.2678985595703 3.554960966110229 C 221.50439453125 5.854560852050781 232.556396484375 9.285261154174805 243.1179046630859 13.75196075439453 C 253.4877014160156 18.1385612487793 263.4884948730469 23.56736183166504 272.843994140625 29.88726043701172 C 282.1104125976562 36.14756011962891 290.8241882324219 43.33776092529297 298.7432861328125 51.25596237182617 C 306.6624145507812 59.17586135864258 313.8525085449219 67.88966369628906 320.1129150390625 77.15605926513672 C 326.0505065917969 85.94456481933594 331.2000122070312 95.30196380615234 335.4388122558594 105.0002593994141 L 579.9995727539062 105.0002593994141 C 617.5557250976562 105.0002593994141 648 135.4446563720703 648 172.999755859375 L 648 177.0002593994141 C 648 214.5555572509766 617.5557250976562 244.999755859375 579.9995727539062 244.999755859375 L 570.8322143554688 244.999755859375 L 547.2990112304688 268.5330505371094 C 541.8314819335938 274.0005493164062 534.6657104492188 276.7343139648438 527.4998779296875 276.7343139648438 C 520.3341064453125 276.7343139648438 513.1682739257812 274.0005493164062 507.7008056640625 268.5330505371094 L 484.1683044433594 244.999755859375 L 478.8316955566406 244.999755859375 L 455.2991943359375 268.5330505371094 C 449.8316955566406 274.0005493164062 442.6658935546875 276.7343139648438 435.5000915527344 276.7343139648438 C 428.3342895507812 276.7343139648438 421.1684875488281 274.0005493164062 415.7009887695312 268.5330505371094 L 392.1677856445312 244.999755859375 L 335.4386901855469 244.999755859375 C 331.1998901367188 254.6974639892578 326.0505065917969 264.0555725097656 320.1129150390625 272.8439636230469 C 313.8525085449219 282.1104736328125 306.6624145507812 290.8242492675781 298.7432861328125 298.7433471679688 C 290.8241882324219 306.6624755859375 282.1104125976562 313.8525695800781 272.843994140625 320.1129760742188 C 263.4884948730469 326.4335632324219 253.4868011474609 331.861572265625 243.1179046630859 336.2481689453125 C 232.556396484375 340.7148742675781 221.50439453125 344.1455688476562 210.2678985595703 346.445068359375 C 198.7398071289062 348.8040466308594 186.8733062744141 350.0001525878906 174.9996032714844 350.0001525878906 Z M 98.00009918212891 134.9999542236328 C 92.60009765625 134.9999542236328 87.36119842529297 136.0575561523438 82.43009948730469 138.1436614990234 C 77.66729736328125 140.1578674316406 73.38960266113281 143.0423583984375 69.71579742431641 146.7152557373047 C 66.04199981689453 150.3890686035156 63.15750122070312 154.6667633056641 61.1432991027832 159.4296569824219 C 59.05709838867188 164.3615570068359 57.99959945678711 169.5995635986328 57.99959945678711 174.9995574951172 C 57.99959945678711 180.3995666503906 59.05709838867188 185.6375579833984 61.1432991027832 190.5696563720703 C 63.15750122070312 195.3323669433594 66.04199981689453 199.6100616455078 69.71579742431641 203.2838592529297 C 73.38960266113281 206.9576568603516 77.66729736328125 209.8421630859375 82.43009948730469 211.8563537597656 C 87.36209869384766 213.9426574707031 92.60009765625 215.0000610351562 98.00009918212891 215.0000610351562 C 103.4001007080078 215.0000610351562 108.6380996704102 213.9426574707031 113.5700988769531 211.8563537597656 C 118.3329010009766 209.8421630859375 122.6106033325195 206.9576568603516 126.2844009399414 203.2838592529297 C 129.9573059082031 199.6100616455078 132.841796875 195.3323669433594 134.8560028076172 190.5696563720703 C 136.9421997070312 185.6375579833984 137.9996948242188 180.3995666503906 137.9996948242188 174.9995574951172 C 137.9996948242188 169.5995635986328 136.9421997070312 164.3615570068359 134.8560028076172 159.4296569824219 C 132.841796875 154.6667633056641 129.9573059082031 150.3890686035156 126.2844009399414 146.7152557373047 C 122.6106033325195 143.0423583984375 118.3329010009766 140.1578674316406 113.5700988769531 138.1436614990234 C 108.6380996704102 136.0575561523438 103.4001007080078 134.9999542236328 98.00009918212891 134.9999542236328 Z"/></g></g></svg>